<?xml version="1.0" encoding="us-ascii" standalone="no"?><svg xmlns="http://www.w3.org/2000/svg" xmlns:xlink="http://www.w3.org/1999/xlink" contentStyleType="text/css" height="620px" preserveAspectRatio="none" style="width:908px;height:620px;background:#FFFFFF;" version="1.1" viewBox="0 0 908 620" width="908px" zoomAndPan="magnify"><defs/><g><text fill="#000000" font-family="sans-serif" font-size="14" font-weight="bold" lengthAdjust="spacing" textLength="320" x="287.25" y="24.5332">Robot Motion Simulator - Component Diagram</text><!--entity App--><g id="elem_App"><rect fill="#F1F1F1" height="47.6094" rx="2.5" ry="2.5" style="stroke:#181818;stroke-width:0.5;" width="65" x="390" y="45.6094"/><rect fill="#F1F1F1" height="10" style="stroke:#181818;stroke-width:0.5;" width="15" x="435" y="50.6094"/><rect fill="#F1F1F1" height="2" style="stroke:#181818;stroke-width:0.5;" width="4" x="433" y="52.6094"/><rect fill="#F1F1F1" height="2" style="stroke:#181818;stroke-width:0.5;" width="4" x="433" y="56.6094"/><text fill="#000000" font-family="sans-serif" font-size="14" lengthAdjust="spacing" textLength="25" x="405" y="80.1426">App</text></g><!--entity ConfigManager--><g id="elem_ConfigManager"><rect fill="#F1F1F1" height="47.6094" rx="2.5" ry="2.5" style="stroke:#181818;stroke-width:0.5;" width="141" x="79" y="171.6094"/><rect fill="#F1F1F1" height="10" style="stroke:#181818;stroke-width:0.5;" width="15" x="200" y="176.6094"/><rect fill="#F1F1F1" height="2" style="stroke:#181818;stroke-width:0.5;" width="4" x="198" y="178.6094"/><rect fill="#F1F1F1" height="2" style="stroke:#181818;stroke-width:0.5;" width="4" x="198" y="182.6094"/><text fill="#000000" font-family="sans-serif" font-size="14" lengthAdjust="spacing" textLength="101" x="94" y="206.1426">Config Manager</text></g><!--entity ConfigParser--><g id="elem_ConfigParser"><rect fill="#F1F1F1" height="47.6094" rx="2.5" ry="2.5" style="stroke:#181818;stroke-width:0.5;" width="181" x="7" y="45.6094"/><rect fill="#F1F1F1" height="10" style="stroke:#181818;stroke-width:0.5;" width="15" x="168" y="50.6094"/><rect fill="#F1F1F1" height="2" style="stroke:#181818;stroke-width:0.5;" width="4" x="166" y="52.6094"/><rect fill="#F1F1F1" height="2" style="stroke:#181818;stroke-width:0.5;" width="4" x="166" y="56.6094"/><text fill="#000000" font-family="sans-serif" font-size="14" lengthAdjust="spacing" textLength="141" x="22" y="80.1426">Config Parser &amp; Saver</text></g><!--entity Visualization--><g id="elem_Visualization"><rect fill="#F1F1F1" height="65.2188" rx="2.5" ry="2.5" style="stroke:#181818;stroke-width:0.5;" width="182" x="372.5" y="549.6094"/><rect fill="#F1F1F1" height="10" style="stroke:#181818;stroke-width:0.5;" width="15" x="534.5" y="554.6094"/><rect fill="#F1F1F1" height="2" style="stroke:#181818;stroke-width:0.5;" width="4" x="532.5" y="556.6094"/><rect fill="#F1F1F1" height="2" style="stroke:#181818;stroke-width:0.5;" width="4" x="532.5" y="560.6094"/><text fill="#000000" font-family="sans-serif" font-size="14" lengthAdjust="spacing" textLength="78" x="387.5" y="584.1426">Visualization</text><text fill="#000000" font-family="sans-serif" font-size="14" lengthAdjust="spacing" textLength="142" x="387.5" y="601.752">(Grid + Robot Render)</text></g><!--entity GUI--><g id="elem_GUI"><rect fill="#F1F1F1" height="47.6094" rx="2.5" ry="2.5" style="stroke:#181818;stroke-width:0.5;" width="63" x="391" y="171.6094"/><rect fill="#F1F1F1" height="10" style="stroke:#181818;stroke-width:0.5;" width="15" x="434" y="176.6094"/><rect fill="#F1F1F1" height="2" style="stroke:#181818;stroke-width:0.5;" width="4" x="432" y="178.6094"/><rect fill="#F1F1F1" height="2" style="stroke:#181818;stroke-width:0.5;" width="4" x="432" y="182.6094"/><text fill="#000000" font-family="sans-serif" font-size="14" lengthAdjust="spacing" textLength="23" x="406" y="206.1426">GUI</text></g><!--entity Physics--><g id="elem_Physics"><rect fill="#F1F1F1" height="47.6094" rx="2.5" ry="2.5" style="stroke:#181818;stroke-width:0.5;" width="136" x="487.5" y="423.6094"/><rect fill="#F1F1F1" height="10" style="stroke:#181818;stroke-width:0.5;" width="15" x="603.5" y="428.6094"/><rect fill="#F1F1F1" height="2" style="stroke:#181818;stroke-width:0.5;" width="4" x="601.5" y="430.6094"/><rect fill="#F1F1F1" height="2" style="stroke:#181818;stroke-width:0.5;" width="4" x="601.5" y="434.6094"/><text fill="#000000" font-family="sans-serif" font-size="14" lengthAdjust="spacing" textLength="96" x="502.5" y="458.1426">Physics Engine</text></g><!--entity RobotControls--><g id="elem_RobotControls"><rect fill="#F1F1F1" height="47.6094" rx="2.5" ry="2.5" style="stroke:#181818;stroke-width:0.5;" width="135" x="488" y="297.6094"/><rect fill="#F1F1F1" height="10" style="stroke:#181818;stroke-width:0.5;" width="15" x="603" y="302.6094"/><rect fill="#F1F1F1" height="2" style="stroke:#181818;stroke-width:0.5;" width="4" x="601" y="304.6094"/><rect fill="#F1F1F1" height="2" style="stroke:#181818;stroke-width:0.5;" width="4" x="601" y="308.6094"/><text fill="#000000" font-family="sans-serif" font-size="14" lengthAdjust="spacing" textLength="95" x="503" y="332.1426">Robot Controls</text></g><!--entity SettingManager--><g id="elem_SettingManager"><rect fill="#F1F1F1" height="47.6094" rx="2.5" ry="2.5" style="stroke:#181818;stroke-width:0.5;" width="151" x="489" y="171.6094"/><rect fill="#F1F1F1" height="10" style="stroke:#181818;stroke-width:0.5;" width="15" x="620" y="176.6094"/><rect fill="#F1F1F1" height="2" style="stroke:#181818;stroke-width:0.5;" width="4" x="618" y="178.6094"/><rect fill="#F1F1F1" height="2" style="stroke:#181818;stroke-width:0.5;" width="4" x="618" y="182.6094"/><text fill="#000000" font-family="sans-serif" font-size="14" lengthAdjust="spacing" textLength="111" x="504" y="206.1426">Settings Manager</text></g><!--entity CommunicationModule--><g id="elem_CommunicationModule"><rect fill="#F1F1F1" height="47.6094" rx="2.5" ry="2.5" style="stroke:#181818;stroke-width:0.5;" width="187" x="675" y="171.6094"/><rect fill="#F1F1F1" height="10" style="stroke:#181818;stroke-width:0.5;" width="15" x="842" y="176.6094"/><rect fill="#F1F1F1" height="2" style="stroke:#181818;stroke-width:0.5;" width="4" x="840" y="178.6094"/><rect fill="#F1F1F1" height="2" style="stroke:#181818;stroke-width:0.5;" width="4" x="840" y="182.6094"/><text fill="#000000" font-family="sans-serif" font-size="14" lengthAdjust="spacing" textLength="147" x="690" y="206.1426">Communication Module</text></g><!--link App to SettingManager--><g id="link_App_SettingManager"><path d="M448.88,93.6394 C474.22,115.7794 507.8004,145.1031 533.2604,167.3331 " fill="none" id="App-to-SettingManager" style="stroke:#181818;stroke-width:1.0;"/><polygon fill="#181818" points="537.78,171.2794,533.6314,162.3469,534.0136,167.9908,528.3697,168.3731,537.78,171.2794" style="stroke:#181818;stroke-width:1.0;"/><text fill="#000000" font-family="sans-serif" font-size="13" lengthAdjust="spacing" textLength="103" x="503.5" y="138.1045">manages settings</text></g><!--link App to ConfigManager--><g id="link_App_ConfigManager"><path d="M389.87,74.7994 C349.86,80.9794 280.91,95.0194 228.5,123.6094 C206,135.8894 188.7711,151.4081 173.9511,167.0181 " fill="none" id="App-to-ConfigManager" style="stroke:#181818;stroke-width:1.0;"/><polygon fill="#181818" points="169.82,171.3694,178.9175,167.5965,173.2626,167.7433,173.1158,162.0883,169.82,171.3694" style="stroke:#181818;stroke-width:1.0;"/><text fill="#000000" font-family="sans-serif" font-size="13" lengthAdjust="spacing" textLength="69" x="229.5" y="138.1045">loads config</text></g><!--link App to GUI--><g id="link_App_GUI"><path d="M422.5,93.6394 C422.5,115.7794 422.5,143.0494 422.5,165.2794 " fill="none" id="App-to-GUI" style="stroke:#181818;stroke-width:1.0;"/><polygon fill="#181818" points="422.5,171.2794,426.5,162.2794,422.5,166.2794,418.5,162.2794,422.5,171.2794" style="stroke:#181818;stroke-width:1.0;"/></g><!--link App to Physics--><g id="link_App_Physics"><path d="M399.61,93.7394 C366.6,130.0294 311.94,202.8794 334.5,267.6094 C358.03,335.1194 377.86,349.9794 434.5,393.6094 C450.22,405.7194 463.6297,413.2923 481.7797,421.2023 " fill="none" id="App-to-Physics" style="stroke:#181818;stroke-width:1.0;"/><polygon fill="#181818" points="487.28,423.5994,480.6276,416.3368,482.6964,421.6018,477.4314,423.6706,487.28,423.5994" style="stroke:#181818;stroke-width:1.0;"/><text fill="#000000" font-family="sans-serif" font-size="13" lengthAdjust="spacing" textLength="84" x="335.5" y="264.1045">simulation tick</text></g><!--link App to CommunicationModule--><g id="link_App_CommunicationModule"><path d="M455.12,77.8094 C493.91,86.7794 560.36,103.4094 615.5,123.6094 C652.89,137.3094 688.3695,153.814 718.4395,168.794 " fill="none" id="App-to-CommunicationModule" style="stroke:#181818;stroke-width:1.0;"/><polygon fill="#181818" points="723.81,171.4694,717.5379,163.8759,719.3346,169.2399,713.9707,171.0366,723.81,171.4694" style="stroke:#181818;stroke-width:1.0;"/><text fill="#000000" font-family="sans-serif" font-size="13" lengthAdjust="spacing" textLength="242" x="658.5" y="138.1045">handle communication with physical robot</text></g><!--link ConfigParser to ConfigManager--><g id="link_ConfigParser_ConfigManager"><path d="M90.5735,99.8126 C88.1135,114.1226 88.13,126.6194 94.5,141.6094 C99.38,153.0794 103.6661,159.2161 112.7361,167.5261 " fill="none" id="ConfigParser-ConfigManager" style="stroke:#181818;stroke-width:1.0;"/><polygon fill="#181818" points="91.59,93.8994,86.123,102.0916,90.7429,98.8271,94.0074,103.447,91.59,93.8994" style="stroke:#181818;stroke-width:1.0;"/><polygon fill="#181818" points="117.16,171.5794,113.2263,162.5502,113.4734,168.2017,107.8219,168.4488,117.16,171.5794" style="stroke:#181818;stroke-width:1.0;"/><text fill="#000000" font-family="sans-serif" font-size="13" lengthAdjust="spacing" textLength="92" x="95.5" y="138.1045">load/save config</text></g><!--link GUI to RobotControls--><g id="link_GUI_RobotControls"><path d="M447.2,219.6394 C470.94,241.7794 502.2409,270.9584 526.0909,293.1884 " fill="none" id="GUI-to-RobotControls" style="stroke:#181818;stroke-width:1.0;"/><polygon fill="#181818" points="530.48,297.2794,526.6237,288.2169,526.8224,293.8702,521.1691,294.069,530.48,297.2794" style="stroke:#181818;stroke-width:1.0;"/><text fill="#000000" font-family="sans-serif" font-size="13" lengthAdjust="spacing" textLength="57" x="498.5" y="264.1045">user input</text></g><!--link Visualization to GUI--><g id="link_Visualization_GUI"><path d="M460.13,549.5394 C452.11,474.2794 432.6363,291.6855 425.6063,225.7655 " fill="none" id="Visualization-to-GUI" style="stroke:#181818;stroke-width:1.0;"/><polygon fill="#181818" points="424.97,219.7994,421.9469,229.1728,425.5002,224.7712,429.9018,228.3245,424.97,219.7994" style="stroke:#181818;stroke-width:1.0;"/><text fill="#000000" font-family="sans-serif" font-size="13" lengthAdjust="spacing" textLength="76" x="444.5" y="390.1045">render output</text></g><!--link RobotControls to Physics--><g id="link_RobotControls_Physics"><path d="M555.5,345.6394 C555.5,367.7794 555.5,395.0494 555.5,417.2794 " fill="none" id="RobotControls-to-Physics" style="stroke:#181818;stroke-width:1.0;"/><polygon fill="#181818" points="555.5,423.2794,559.5,414.2794,555.5,418.2794,551.5,414.2794,555.5,423.2794" style="stroke:#181818;stroke-width:1.0;"/><text fill="#000000" font-family="sans-serif" font-size="13" lengthAdjust="spacing" textLength="126" x="556.5" y="390.1045">motor/command input</text></g><!--link Physics to Visualization--><g id="link_Physics_Visualization"><path d="M539.47,471.6894 C524.55,493.1894 505.5722,520.511 488.9622,544.431 " fill="none" id="Physics-to-Visualization" style="stroke:#181818;stroke-width:1.0;"/><polygon fill="#181818" points="485.54,549.3594,493.9589,544.2484,488.3919,545.2524,487.3878,539.6854,485.54,549.3594" style="stroke:#181818;stroke-width:1.0;"/><text fill="#000000" font-family="sans-serif" font-size="13" lengthAdjust="spacing" textLength="111" x="519.5" y="516.1045">updated robot pose</text></g><!--SRC=[TLB1JXqn3BpdAomEb0f5t565LD4ASK12F9LJBs5ZTYqsSPHugUZNasIpJnjAJud6ux4zjf3C20_yn09tBCGU3kIMsGX7q73DBh17B_23p1YDKy81X27pXHrOYZYKB3MHHK0Nv0qSkYUCIQdXc7toFOGJC0dos-7Nx9zfX3lZpOYnKbQe8PzmxqrC6E4K3kQrIra3-un7IekPwQyfBVxsPpUHB9otSH_GMunVgq17t2lS_BgjXFpkuVlfBT6GuASVoMDbD6ZFMklavYJod2ghGXkovnvGXFoOEYiQ-AaNpYsUXjfmtfnTPcnMx08hhhw0rhfONmWSXmcJn7N3Mgk2QttreHXSWgk_1AcrTcHs6yh4cOrDC5JqI2gERV_Dhaj8wt6LfeM6bvtaFsrdzcIypP-X6_OFoGIXAfePOZ6qJTWEv6XJglFjZmE-_Q__YvIlQPkXwUKHWBnWDFN6grh1YaQtoAon57NoOH7L7TFcHQR4Ud30YnJMMc9pvXm-PcdLb-XzT9pNTr6CoHQrkbkqC7krt5wmHj2kTa7WXEeT]--></g></svg>